<?xml version="1.0" encoding="iso-8859-1"?>
<!-- Generator: Adobe Illustrator 19.0.0, SVG Export Plug-In . SVG Version: 6.00 Build 0)  -->
<svg version="1.1" id="Capa_1" xmlns="http://www.w3.org/2000/svg" xmlns:xlink="http://www.w3.org/1999/xlink" x="0px" y="0px"
	 viewBox="0 0 512 512" style="enable-background:new 0 0 512 512;" xml:space="preserve">
<path style="fill:#94C609;" d="M398.126,99.426c-4.802-0.806-8.759-4.186-10.417-8.764C368.572,37.787,317.925,0,258.447,0
	C199.62,0,149.436,36.96,129.825,88.922c-2.075,5.497-7.099,9.277-12.923,10.049c-43.258,5.729-76.643,42.733-76.643,87.557
	c0,48.797,39.558,88.356,88.355,88.356c5.124,0,10.138-0.461,15.024-1.298c16.08,13.372,37.423,17.658,57.125,12.09
	c8.826,7.619,19.175,13.52,30.525,17.192l49.424,1.422c13.067-3.398,24.963-9.697,34.946-18.188
	c19.028,4.859,39.493,0.617,55.129-12.128c4.117,0.588,8.32,0.909,12.6,0.909c48.797,0,88.355-39.558,88.355-88.356
	C471.742,142.757,439.904,106.443,398.126,99.426z"/>
<path style="fill:#83AA2E;" d="M59.874,186.528c0-44.824,33.384-81.828,76.643-87.557c5.825-0.771,10.849-4.552,12.923-10.049
	c18.51-49.044,64.26-84.707,118.8-88.56C265.003,0.135,261.74,0,258.447,0C199.62,0,149.436,36.96,129.825,88.922
	c-2.075,5.497-7.099,9.277-12.923,10.049c-43.258,5.729-76.643,42.733-76.643,87.557c0,48.797,39.558,88.356,88.355,88.356
	c3.271,0,6.492-0.207,9.669-0.56C94.168,269.381,59.874,231.963,59.874,186.528z"/>
<g>
	<path style="fill:#9B6F43;" d="M276.24,266.183c-1.487,0-2.989-0.435-4.308-1.341c-3.464-2.383-4.34-7.122-1.957-10.586
		c14.276-20.751,41.414-29.027,42.563-29.369c4.029-1.203,8.268,1.092,9.469,5.121c1.199,4.025-1.088,8.259-5.109,9.465l0,0
		c-0.231,0.069-23.192,7.149-34.38,23.411C281.042,265.03,278.662,266.183,276.24,266.183z"/>
	<path style="fill:#9B6F43;" d="M280.712,424.041V210.42c0-4.237-3.434-7.671-7.671-7.671h-33.867c-4.355,0-7.886,3.531-7.886,7.886
		v136.293c-14.926-15.318-30.557-23.515-31.539-24.021c-6.221-3.209-13.877-0.766-17.09,5.462c-3.21,6.227-0.765,13.879,5.462,17.09
		c0.285,0.147,28.864,15.434,40.424,41.124c0.68,1.51,1.621,2.82,2.743,3.906v33.552c0,67.529-65.97,80.347-65.97,80.347h89.86
		h1.644h89.86C346.682,504.388,280.712,491.57,280.712,424.041z"/>
</g>
<path style="fill:#875E39;" d="M251.333,424.041c0-7.325,0-201.462,0-213.406c0-4.355,3.53-7.886,7.886-7.886h-20.045
	c-4.355,0-7.886,3.531-7.886,7.886v136.293c-14.926-15.318-30.557-23.515-31.539-24.021c-6.221-3.209-13.877-0.766-17.09,5.462
	c-3.21,6.227-0.765,13.879,5.462,17.09c0.285,0.147,28.864,15.434,40.424,41.124c0.68,1.51,1.621,2.82,2.743,3.906v33.552
	c0,67.529-65.97,80.347-65.97,80.347h20.045C185.364,504.388,251.333,491.57,251.333,424.041z"/>
<path style="fill:#9B6F43;" d="M389.107,512H124.21c-4.204,0-7.612-3.408-7.612-7.612s3.408-7.612,7.612-7.612h264.896
	c4.204,0,7.612,3.408,7.612,7.612C396.719,508.592,393.311,512,389.107,512z"/>
<g>
	<circle style="fill:#9CDD05;" cx="187.09" cy="126.12" r="14.64"/>
	<circle style="fill:#9CDD05;" cx="326.29" cy="145.07" r="14.64"/>
	<path style="fill:#9CDD05;" d="M257.935,132.255l-6.443-4.736c-3.387-2.49-4.115-7.254-1.625-10.641
		c2.491-3.388,7.255-4.114,10.641-1.625l6.443,4.736c3.387,2.49,4.115,7.254,1.625,10.641
		C266.087,134.017,261.323,134.745,257.935,132.255z"/>
	<path style="fill:#9CDD05;" d="M174.389,208.036l-6.443-4.736c-3.387-2.49-4.115-7.254-1.625-10.641
		c2.49-3.387,7.255-4.113,10.641-1.625l6.443,4.736c3.387,2.49,4.115,7.254,1.625,10.641
		C182.54,209.798,177.777,210.527,174.389,208.036z"/>
	<path style="fill:#9CDD05;" d="M353.749,194.399c-2.795-3.14-2.516-7.952,0.624-10.747l5.973-5.317
		c3.139-2.795,7.951-2.516,10.747,0.624c2.795,3.14,2.516,7.952-0.624,10.747l-5.973,5.317
		C361.357,197.817,356.546,197.541,353.749,194.399z"/>
</g>
<g>
</g>
<g>
</g>
<g>
</g>
<g>
</g>
<g>
</g>
<g>
</g>
<g>
</g>
<g>
</g>
<g>
</g>
<g>
</g>
<g>
</g>
<g>
</g>
<g>
</g>
<g>
</g>
<g>
</g>
</svg>
