<?xml version="1.0" encoding="iso-8859-1"?>
<!-- Generator: Adobe Illustrator 19.0.0, SVG Export Plug-In . SVG Version: 6.00 Build 0)  -->
<svg version="1.1" id="Capa_1" xmlns="http://www.w3.org/2000/svg" xmlns:xlink="http://www.w3.org/1999/xlink" x="0px" y="0px"
	 viewBox="0 0 512 512" style="enable-background:new 0 0 512 512;" xml:space="preserve">
<path style="fill:#CA8B69;" d="M364.09,511.949h-53.315c-2.761,0-5-2.239-5-5V440.13h63.315v66.819
	C369.09,509.711,366.851,511.949,364.09,511.949z"/>
<path style="fill:#B27157;" d="M369.09,440.13v66.656c0,2.849-2.312,5.161-5.161,5.161h-19.015v-71.818L369.09,440.13L369.09,440.13
	z"/>
<path style="fill:#CA8B69;" d="M157.511,511.949h-53.315c-2.761,0-5-2.239-5-5V440.13h63.315v66.819
	C162.511,509.711,160.273,511.949,157.511,511.949z"/>
<g>
	<path style="fill:#B27157;" d="M162.509,440.13v66.656c0,2.849-2.312,5.161-5.161,5.161h-19.015v-71.818L162.509,440.13
		L162.509,440.13z"/>
</g>
<path style="fill:#8BCE34;" d="M439.876,308.411h23.209c4.24,0,6.672-4.829,4.147-8.235l-77.066-103.963
	c-2.525-3.406-0.094-8.235,4.146-8.235h35.629c4.048,0,6.521-4.448,4.384-7.886L342.133,31.768c-2.016-3.243-6.734-3.25-8.76-0.013
	L240.58,180.078c-2.151,3.438,0.321,7.899,4.376,7.899h35.597c4.24,0,6.671,4.829,4.146,8.235l-77.066,103.963
	c-2.525,3.406-0.094,8.235,4.146,8.235h23.209c4.1,0,6.564,4.551,4.322,7.984l-75.597,115.751c-2.242,3.433,0.221,7.984,4.322,7.984
	h169.397H506.83c4.1,0,6.564-4.551,4.322-7.984l-75.597-115.751C433.312,312.961,435.776,308.411,439.876,308.411z"/>
<path style="fill:#79B510;" d="M506.83,440.129H479l-86.22-129.11c-2.43-3.72,0.24-8.65,4.68-8.65h25.14c4.6,0,7.23-5.23,4.49-8.92
	l-83.48-112.62c-2.73-3.69-0.1-8.92,4.49-8.92h38.6c4.38,0,7.06-4.82,4.75-8.55l-69.98-112.58l11.9-19.02
	c2.03-3.24,6.75-3.23,8.76,0.01l92.19,148.32c2.14,3.44-0.33,7.89-4.38,7.89h-35.63c-4.24,0-6.67,4.83-4.14,8.23l77.06,103.97
	c2.53,3.4,0.09,8.23-4.15,8.23h-23.2c-4.1,0-6.57,4.55-4.33,7.99l75.6,115.75C513.39,435.579,510.93,440.129,506.83,440.129z"/>
<path style="fill:#8BCE34;" d="M187.734,319.696h35.629c4.048,0,6.521-4.448,4.384-7.886l-92.192-148.323
	c-2.016-3.243-6.734-3.25-8.759-0.013L34.002,311.797c-2.151,3.438,0.321,7.899,4.376,7.899h35.597c4.24,0,6.672,4.829,4.147,8.235
	L1.055,431.894c-2.525,3.406-0.093,8.235,4.147,8.235h251.305c4.24,0,6.671-4.829,4.147-8.235l-77.066-103.963
	C181.062,324.525,183.493,319.696,187.734,319.696z"/>
<path style="fill:#79B510;" d="M256.51,440.129h-30.843L136.8,318.149c-2.74-3.7-0.1-8.95,4.51-8.95h38.74
	c4.4,0,7.09-4.84,4.76-8.58l-71.68-115.31l13.66-21.83c2.03-3.24,6.75-3.24,8.76,0.01l92.2,148.32c2.13,3.44-0.34,7.89-4.39,7.89
	h-35.63c-4.24,0-6.67,4.83-4.14,8.23l77.06,103.97C263.18,435.299,260.75,440.129,256.51,440.129z"/>
<path style="fill:#A6E6FD;" d="M79.897,95.9c0-0.008,0.001-0.016,0.001-0.025c0-15.161-12.291-27.452-27.452-27.452
	s-27.452,12.29-27.452,27.452c0,0.008,0.001,0.016,0.001,0.025C11.159,96.417,0,107.887,0,121.843l0,0
	c0,14.282,11.685,25.968,25.968,25.968h52.957c14.282,0,25.968-11.685,25.968-25.968l0,0C104.892,107.887,93.732,96.417,79.897,95.9
	z"/>
<path style="fill:#8DD0E2;" d="M104.89,121.842c0,14.287-11.686,25.973-25.963,25.973H25.97c-7.144,0-13.637-2.922-18.344-7.629
	c-3.747-3.747-6.359-8.63-7.267-14.07c2.312,0.692,4.749,1.053,7.278,1.053h52.957c14.287,0,25.973-11.686,25.973-25.973
	c0-1.456-0.124-2.88-0.361-4.264c4.377,1.28,8.279,3.696,11.376,6.896C102.103,108.504,104.89,114.863,104.89,121.842z"/>
<path style="fill:#A6E6FD;" d="M482.876,27.529c0-0.008,0.001-0.017,0.001-0.025c0-15.161-12.291-27.452-27.452-27.452
	c-15.161,0-27.452,12.29-27.452,27.452c0,0.008,0.001,0.017,0.001,0.025c-13.836,0.517-24.995,11.987-24.995,25.943l0,0
	c0,14.282,11.685,25.968,25.968,25.968h52.957c14.282,0,25.968-11.685,25.968-25.968l0,0
	C507.871,39.516,496.711,28.046,482.876,27.529z"/>
<path style="fill:#8DD0E2;" d="M507.869,53.471c0,14.287-11.686,25.973-25.963,25.973h-52.957c-7.144,0-13.637-2.921-18.344-7.629
	c-3.747-3.747-6.359-8.63-7.267-14.07c2.312,0.692,4.749,1.053,7.278,1.053h52.957c14.287,0,25.973-11.686,25.973-25.973
	c0-1.456-0.124-2.88-0.361-4.263c4.377,1.28,8.279,3.696,11.376,6.896C505.082,40.133,507.869,46.492,507.869,53.471z"/>
<g>
</g>
<g>
</g>
<g>
</g>
<g>
</g>
<g>
</g>
<g>
</g>
<g>
</g>
<g>
</g>
<g>
</g>
<g>
</g>
<g>
</g>
<g>
</g>
<g>
</g>
<g>
</g>
<g>
</g>
</svg>
