<?xml version="1.0" encoding="iso-8859-1"?>
<!-- Generator: Adobe Illustrator 19.0.0, SVG Export Plug-In . SVG Version: 6.00 Build 0)  -->
<svg version="1.1" id="Capa_1" xmlns="http://www.w3.org/2000/svg" xmlns:xlink="http://www.w3.org/1999/xlink" x="0px" y="0px"
	 viewBox="0 0 512.002 512.002" style="enable-background:new 0 0 512.002 512.002;" xml:space="preserve">
<path style="fill:#3C5A73;" d="M93.448,462.549c-7.679,0-14.986-4.491-18.209-11.995c-4.318-10.051,0.328-21.7,10.38-26.018
	l50.84-21.842l-4.238-0.487c-10.868-1.247-18.668-11.068-17.422-21.936c1.247-10.869,11.072-18.671,21.936-17.422l78.212,8.973
	c8.919,1.024,16.036,7.919,17.341,16.802c1.304,8.883-3.53,17.533-11.779,21.077l-119.252,51.236
	C98.709,462.03,96.055,462.549,93.448,462.549z"/>
<path style="fill:#55879B;" d="M165.566,440.472l-89.843-35.976l23.832-8.512c10.303-3.679,15.67-15.015,11.991-25.316
	c-3.679-10.303-15.017-15.671-25.317-11.991l-73.094,26.109c-15.948,5.691-18.758,28.795-0.688,37.047
	c17.362,6.953,121.179,48.524,138.392,55.418c10.111,4.047,21.667-0.824,25.752-11.025
	C180.658,456.069,175.722,444.539,165.566,440.472z"/>
<path style="fill:#703C22;" d="M497.075,361.401h-27.628l15.678-52.802c2.145-7.227,9.72-11.37,16.962-9.278
	c3.56,1.028,6.553,3.453,8.298,6.722c1.745,3.269,2.093,7.105,0.967,10.634L497.075,361.401z"/>
<path style="fill:#39AE96;" d="M121.063,361.401L301.177,37.968c1.595-2.863,4.616-4.639,7.892-4.639
	c3.278,0,6.298,1.775,7.892,4.639l180.114,323.433H121.063z"/>
<polygon style="fill:#177D74;" points="215.61,361.401 402.527,361.401 309.069,193.576 "/>
<polygon style="fill:#1C9585;" points="309.069,193.576 309.069,193.576 215.61,361.401 309.069,361.401 "/>
<path style="fill:#EDB59E;" d="M265.198,285.84c-4.133-8.127-14.07-11.362-22.196-7.233l-42.792,21.758
	c-1.416-6.827-2.934-14.063-4.141-19.651c-4.655-21.543-19.842-35.462-38.69-35.462H126.17h-13.171H68.585
	c-21.432,0-38.955,17.435-39.063,38.817l-0.318,39.606c-0.043,5.409,2.566,10.496,6.985,13.616l32.896,23.229v19.627h87.435V278.262
	h0.86c4.263,0,6.214,8.458,6.422,9.423c3.124,14.456,8.374,40.233,8.427,40.492c1.028,5.05,4.356,9.331,8.998,11.573
	c2.268,1.095,4.723,1.641,7.177,1.641c2.566,0,5.132-0.598,7.482-1.791l62.082-31.564
	C266.092,303.902,269.329,293.966,265.198,285.84z M62.286,315.304l0.248-31.022c0.017-3.318,2.731-6.019,6.05-6.019h0.5v41.84
	L62.286,315.304z"/>
<path style="fill:#7EADFC;" d="M196.069,280.713c-4.655-21.543-19.842-35.462-38.69-35.462h-27.267
	c0.001,0.032,0.007,0.064,0.009,0.097c0.428,9.564-8.446,17.709-17.709,17.709c-9.928,0-17.279-8.114-17.709-17.709
	c-0.001-0.032,0.002-0.064,0.001-0.097H68.585c-21.432,0-38.955,17.435-39.063,38.817l-0.185,23.014h33.015l0.183-22.8
	c0.017-3.318,2.731-6.019,6.05-6.019h0.5v101.882h87.435V278.262h0.86c4.263,0,6.214,8.458,6.422,9.423
	c0.752,3.483,4.1,19.377,4.997,23.66l31.253-11.752C198.679,292.995,197.231,286.092,196.069,280.713z"/>
<circle style="fill:#EDB59E;" cx="112.977" cy="200.13" r="34.211"/>
<path style="fill:#783C28;" d="M124.528,351.972c-0.708,2.938-0.104,6.162,1.918,8.714c3.493,4.408,9.899,5.15,14.307,1.657
	l123.49-97.843c4.408-3.492,5.151-9.898,1.657-14.307c-3.493-4.408-9.899-5.15-14.307-1.657L128.105,346.38
	C126.249,347.85,125.043,349.837,124.528,351.972z"/>
<path style="fill:#B48255;" d="M100.035,327.82c10.211,1.649,20.239-3.913,24.219-13.46c1.705-4.09-1.535-3.04,7.845-10.472
	c13.755-10.898,36.156-5.533,50.034,11.984c13.879,17.517,13.979,40.552,0.224,51.449c-3.525,2.793-7.617,4.517-11.989,5.241
	c-10.222,1.695-17.911,10.164-18.641,20.5c-0.786,11.131-5.369,21.113-13.76,27.761c-18.639,14.767-48.994,7.497-67.801-16.239
	c-18.807-23.737-18.942-54.951-0.304-69.718C78.254,328.218,89.018,326.039,100.035,327.82z"/>
<g>
	<circle style="fill:#501E0F;" cx="141.185" cy="349.012" r="13.296"/>
	<path style="fill:#501E0F;" d="M80.895,371.138l24.961,31.503c2.794,3.527,7.919,4.121,11.445,1.327s4.121-7.919,1.327-11.446
		l-24.961-31.503c-2.794-3.526-7.919-4.121-11.445-1.326C78.687,362.492,78.107,367.618,80.895,371.138z"/>
	<path style="fill:#501E0F;" d="M232.766,249.038c-0.566,2.352-0.083,4.929,1.534,6.972l18.714,23.619
		c2.794,3.526,7.919,4.121,11.445,1.327c3.526-2.794,4.12-7.918,1.326-11.446L247.07,245.89c-2.794-3.526-7.919-4.121-11.445-1.327
		C234.142,245.741,233.177,247.329,232.766,249.038z"/>
	<path style="fill:#501E0F;" d="M217.439,261.181c-0.566,2.352-0.084,4.929,1.534,6.972l18.714,23.619
		c2.794,3.526,7.919,4.121,11.446,1.326c3.526-2.795,4.121-7.919,1.326-11.445l-18.714-23.619
		c-2.794-3.526-7.919-4.121-11.446-1.327C218.816,257.883,217.851,259.473,217.439,261.181z"/>
</g>
<path style="fill:#EDB59E;" d="M102.399,380.354c-3.291,0-6.614-0.982-9.507-3.024L36.19,337.289
	c-7.447-5.259-9.222-15.559-3.963-23.006c5.26-7.449,15.56-9.221,23.006-3.963l56.702,40.041c7.447,5.259,9.222,15.559,3.963,23.006
	C112.681,377.922,107.579,380.354,102.399,380.354z"/>
<path style="fill:#55879B;" d="M165.566,440.472l-145.3-58.233l-7.131,2.547c-15.948,5.691-18.758,28.795-0.688,37.047
	c17.362,6.953,121.179,48.524,138.392,55.418c10.111,4.047,21.667-0.824,25.752-11.025
	C180.658,456.069,175.722,444.539,165.566,440.472z"/>
<g>
</g>
<g>
</g>
<g>
</g>
<g>
</g>
<g>
</g>
<g>
</g>
<g>
</g>
<g>
</g>
<g>
</g>
<g>
</g>
<g>
</g>
<g>
</g>
<g>
</g>
<g>
</g>
<g>
</g>
</svg>
