<?xml version="1.0" encoding="iso-8859-1"?>
<!-- Generator: Adobe Illustrator 19.0.0, SVG Export Plug-In . SVG Version: 6.00 Build 0)  -->
<svg version="1.1" id="Capa_1" xmlns="http://www.w3.org/2000/svg" xmlns:xlink="http://www.w3.org/1999/xlink" x="0px" y="0px"
	 viewBox="0 0 512 512" style="enable-background:new 0 0 512 512;" xml:space="preserve">
<path style="fill:#F9B548;" d="M495.003,459.945c0,0-186.946-135.537-238.321-319.628h-1.364
	C203.944,324.409,16.997,459.945,16.997,459.945H495.003z"/>
<path style="fill:#EDA43A;" d="M495,459.942H427.06c-48.273-40.69-147.653-134.711-196.035-254.516
	c9.728-20.874,18.02-42.626,24.296-65.106h1.357C308.054,324.413,495,459.942,495,459.942z"/>
<g>
	<path style="fill:#F96921;" d="M256.001,349.188c0,0-53.17,40.689-120.341,53.962c-3.538,0.699-5.161,4.829-3.072,7.769
		c7.893,11.11,22.025,34.29,14.655,49.026C147.243,459.945,199.126,451.461,256.001,349.188z"/>
	<path style="fill:#F96921;" d="M255.996,349.188c0,0,53.17,40.689,120.341,53.962c3.538,0.699,5.161,4.829,3.072,7.769
		c-7.892,11.11-22.025,34.29-14.655,49.026C364.755,459.945,312.872,451.461,255.996,349.188z"/>
</g>
<path style="fill:#F9D53D;" d="M148.575,194.48c-6.532,16.45-22.963,27.891-41.94,26.972c-22.009-1.066-39.824-19.081-40.66-41.1
	c-0.824-21.705,14.514-39.986,34.94-43.77c3.142-0.582,5.658,2.622,4.325,5.527c-0.004,0.008-0.007,0.015-0.01,0.021
	c-2.312,4.957-3.879,10.356-4.091,15.844c-0.864,22.376,20.006,34.608,40.652,31.476c0.42-0.064,1.398-0.173,2.558-0.329
	C147.331,188.72,149.684,191.683,148.575,194.48z"/>
<path style="fill:#CA8B69;" d="M499.528,503.841H12.472c-2.755,0-4.989-2.234-4.989-4.989v-33.918c0-2.756,2.234-4.989,4.989-4.989
	h487.054c2.755,0,4.989,2.233,4.989,4.989v33.918C504.517,501.608,502.283,503.841,499.528,503.841z"/>
<path style="fill:#B27157;" d="M499.528,503.841h-72.659v-43.896h72.659c2.755,0,4.989,2.233,4.989,4.989v33.918
	C504.517,501.608,502.283,503.841,499.528,503.841z"/>
<path style="fill:#A6E6FD;" d="M430.429,128.508c0-0.008,0.001-0.016,0.001-0.024c0-14.655-11.88-26.534-26.534-26.534
	c-14.655,0-26.533,11.88-26.533,26.534c0,0.008,0.001,0.016,0.001,0.024c-13.372,0.5-24.159,11.586-24.159,25.075l0,0
	c0,13.804,11.295,25.099,25.099,25.099h51.186c13.804,0,25.099-11.295,25.099-25.099l0,0
	C454.587,140.094,443.801,129.008,430.429,128.508z"/>
<path style="fill:#8DD0E2;" d="M454.585,153.58c0,13.809-11.295,25.104-25.094,25.104h-51.186c-6.905,0-13.181-2.824-17.731-7.374
	c-3.622-3.622-6.146-8.342-7.024-13.6c2.235,0.669,4.59,1.018,7.034,1.018h51.187c13.809,0,25.104-11.295,25.104-25.104
	c0-1.407-0.12-2.784-0.349-4.121c4.231,1.237,8.002,3.572,10.996,6.665C451.891,140.688,454.585,146.834,454.585,153.58z"/>
<path style="fill:#A6E6FD;" d="M210.492,34.716c0-0.008,0.001-0.016,0.001-0.024c0-14.655-11.88-26.534-26.534-26.534
	s-26.533,11.88-26.533,26.534c0,0.008,0.001,0.016,0.001,0.024c-13.372,0.5-24.159,11.586-24.159,25.075l0,0
	c0,13.804,11.295,25.099,25.099,25.099h51.186c13.804,0,25.099-11.295,25.099-25.099l0,0
	C234.652,46.302,223.866,35.216,210.492,34.716z"/>
<path style="fill:#8DD0E2;" d="M234.65,59.787c0,13.809-11.295,25.104-25.094,25.104h-51.187c-6.905,0-13.181-2.824-17.731-7.374
	c-3.622-3.622-6.146-8.342-7.024-13.6c2.235,0.669,4.59,1.018,7.034,1.018h51.187c13.809,0,25.104-11.295,25.104-25.104
	c0-1.407-0.12-2.784-0.349-4.121c4.231,1.237,8.002,3.572,10.996,6.665C231.956,46.896,234.65,53.042,234.65,59.787z"/>
<path d="M378.302,186.166h51.186c17.966,0,32.583-14.617,32.583-32.583c0-15.335-10.461-28.166-24.79-31.646
	c-3.06-15.636-16.867-27.47-33.386-27.47s-30.325,11.834-33.385,27.47c-14.329,3.48-24.79,16.311-24.79,31.646
	C345.72,171.55,360.336,186.166,378.302,186.166z M377.642,135.987c4.021-0.15,7.204-3.453,7.204-7.478c0-0.035,0-0.071-0.001-0.107
	c0.045-10.467,8.574-18.967,19.051-18.967s19.006,8.502,19.051,18.968c0,0.036-0.001,0.072-0.001,0.106
	c0,4.024,3.183,7.328,7.204,7.478c9.349,0.35,16.955,8.244,16.955,17.598c0,9.713-7.902,17.616-17.616,17.616h-51.186
	c-9.713,0-17.616-7.902-17.616-17.616C360.686,144.229,368.293,136.336,377.642,135.987z"/>
<path d="M158.367,92.374h51.186c17.966,0,32.583-14.617,32.583-32.583c0-15.335-10.462-28.166-24.79-31.646
	c-3.06-15.636-16.867-27.47-33.386-27.47s-30.325,11.834-33.385,27.47c-14.328,3.48-24.79,16.311-24.79,31.646
	C125.784,77.758,140.401,92.374,158.367,92.374z M157.706,42.194c4.021-0.15,7.204-3.453,7.204-7.478c0-0.025,0-0.05-0.001-0.077
	c0.028-10.481,8.563-18.998,19.05-18.998s19.022,8.517,19.051,18.998c-0.001,0.026-0.001,0.052-0.001,0.077
	c0,4.024,3.182,7.328,7.204,7.478c9.349,0.35,16.955,8.244,16.955,17.598c0,9.713-7.902,17.616-17.616,17.616h-51.186
	c-9.713,0-17.616-7.902-17.616-17.616C140.751,50.437,148.357,42.544,157.706,42.194z"/>
<path d="M106.272,228.927c0.822,0.04,1.638,0.059,2.456,0.059c20.559,0,39.165-12.515,46.801-31.745c0-0.001,0-0.001,0-0.001
	c1.509-3.801,0.902-7.999-1.622-11.23c-2.497-3.197-6.544-4.844-10.557-4.306c-0.56,0.076-1.076,0.14-1.5,0.192
	c-0.521,0.065-0.934,0.118-1.183,0.156c-9.478,1.436-18.828-1.001-25.008-6.526c-4.876-4.359-7.313-10.329-7.044-17.264
	c0.159-4.117,1.301-8.479,3.395-12.969c0.012-0.026,0.024-0.052,0.036-0.078c1.776-3.885,1.247-8.393-1.383-11.769
	c-2.639-3.386-6.899-5.006-11.113-4.223c-24.347,4.51-41.996,26.612-41.055,51.412C59.477,206.465,80.464,227.677,106.272,228.927z
	 M95.775,145.816c-1.255,4-1.965,7.971-2.115,11.87c-0.439,11.377,3.832,21.676,12.026,29c8.533,7.627,20.678,11.467,33.122,10.614
	c-6.682,10.777-18.786,17.311-31.812,16.677c-18.121-0.877-32.855-15.772-33.544-33.909
	C72.878,164.939,82.139,151.24,95.775,145.816z"/>
<path d="M499.528,452.462h-2.048c-10.047-7.554-58.138-44.751-108.841-101.465c-2.755-3.081-7.485-3.346-10.567-0.592
	c-3.081,2.755-3.346,7.485-0.592,10.567c38.151,42.675,74.988,74.602,95.782,91.49H370.33c-0.942-8.568,4.527-22.211,15.18-37.21
	c2.463-3.465,2.993-7.893,1.42-11.843c-1.569-3.939-4.987-6.781-9.142-7.602c-55.861-11.039-102.42-42.015-114.306-50.43v-161.61
	c6.681,16.847,14.601,33.743,23.691,50.654c0.052,0.101,0.104,0.202,0.16,0.3c6.494,12.06,13.59,24.127,21.292,36.187
	c0.007,0.01,0.012,0.02,0.019,0.03c11.793,18.466,24.975,36.917,39.559,55.309c2.568,3.239,7.276,3.782,10.514,1.213
	c3.239-2.568,3.782-7.275,1.213-10.514c-11.276-14.22-21.69-28.465-31.25-42.715h114.903c4.133,0,7.483-3.351,7.483-7.483
	s-3.351-7.483-7.483-7.483H318.957c-4.347-6.919-8.499-13.836-12.436-20.75h77.694c4.133,0,7.483-3.351,7.483-7.483
	c0-4.133-3.351-7.483-7.483-7.483h-85.888c-15.049-28.568-26.567-57.043-34.437-85.243c-0.903-3.235-3.849-5.472-7.208-5.472h-1.364
	c-3.359,0-6.305,2.237-7.208,5.472c-26.103,93.536-88.618,174.264-136.465,225.515c-46.117,49.398-87.847,81.664-97.124,88.642
	h-2.048C5.595,452.462,0,458.057,0,464.934v33.918c0,6.878,5.595,12.472,12.472,12.472H133.77c4.133,0,7.483-3.351,7.483-7.483
	c0-4.133-3.351-7.483-7.483-7.483H14.967v-28.929h2.03h130.245h217.515h130.245h2.031v28.929H177.674
	c-4.133,0-7.483,3.351-7.483,7.483c0,4.133,3.351,7.483,7.483,7.483h321.854c6.878,0,12.472-5.595,12.472-12.472v-33.918
	C512,458.058,506.404,452.462,499.528,452.462z M141.669,452.462H38.744c18.587-15.092,49.98-42.185,83.617-78.188
	c31.172-33.364,58.204-67.786,80.345-102.312c18.852-29.397,34.18-58.935,45.81-88.234v161.652
	c-11.862,8.412-58.331,39.367-114.307,50.428c-4.155,0.821-7.572,3.663-9.142,7.602c-1.574,3.949-1.043,8.377,1.419,11.843
	C137.141,430.251,142.611,443.895,141.669,452.462z M156.743,448.594c-0.452-9.428-4.521-22.111-15.878-38.875
	c37.061-7.913,69.397-23.515,91.1-36.029c-4.665,6.9-10.121,14.557-16.193,22.358c-8.35,10.73-16.552,20.031-24.518,27.849
	c-4.576,4.313-9.307,8.386-14.201,12.097C168.896,442.18,161.968,446.118,156.743,448.594z M180.503,452.462
	c6.354-4.484,12.552-9.697,18.513-15.339c16.834-15.342,36.535-38.388,56.983-72.91c19.793,33.418,38.885,56.077,55.355,71.409
	c6.44,6.217,13.169,11.963,20.09,16.841L180.503,452.462L180.503,452.462z M355.255,448.593c-5.23-2.477-12.155-6.414-20.31-12.597
	c-4.878-3.699-9.595-7.758-14.157-12.055c-7.967-7.817-16.171-17.115-24.525-27.845c-6.048-7.769-11.514-15.449-16.203-22.389
	c21.703,12.512,54.028,28.103,91.073,36.013C359.778,426.482,355.708,439.164,355.255,448.593z"/>
<g>
</g>
<g>
</g>
<g>
</g>
<g>
</g>
<g>
</g>
<g>
</g>
<g>
</g>
<g>
</g>
<g>
</g>
<g>
</g>
<g>
</g>
<g>
</g>
<g>
</g>
<g>
</g>
<g>
</g>
</svg>
